<svg width="1500" height="493" viewBox="0 0 1500 493" fill="none" xmlns="http://www.w3.org/2000/svg">
<g clip-path="url(#clip0_46_410)">
<path d="M92.04 248.24C114.813 224.72 145.987 212.96 185.56 212.96C188.173 212.96 190.6 212.96 192.84 212.96C224.573 214.08 249.96 226.587 269 250.48V109.92H330.6V470H270.68V434.16C252.013 459.92 227 473.547 195.64 475.04C191.533 475.413 187.427 475.6 183.32 475.6C145.613 475.6 114.813 464.027 90.92 440.88C67.0267 417.36 55.08 385.44 55.08 345.12C55.08 305.547 67.4 273.253 92.04 248.24ZM118.36 345.12C118.36 369.387 125.64 388.987 140.2 403.92C154.76 418.853 173.24 426.32 195.64 426.32C218.787 426.32 237.08 418.853 250.52 403.92C263.96 388.987 270.68 369.013 270.68 344C270.68 317.493 263.96 297.147 250.52 282.96C237.453 268.773 219.16 261.68 195.64 261.68C172.493 261.68 153.827 269.147 139.64 284.08C125.453 299.013 118.36 319.36 118.36 345.12ZM449.237 218V470H387.637V218H449.237ZM378.677 144.08C378.677 132.88 382.41 123.547 389.877 116.08C397.717 108.24 407.05 104.32 417.877 104.32C429.077 104.32 438.597 108.24 446.437 116.08C454.277 123.547 458.197 132.88 458.197 144.08C458.197 154.907 454.277 164.24 446.437 172.08C438.597 179.547 429.077 183.28 417.877 183.28C407.424 183.28 398.277 179.36 390.437 171.52C382.597 163.68 378.677 154.533 378.677 144.08ZM530.349 248.24C553.123 224.72 584.296 212.96 623.869 212.96C626.483 212.96 628.909 212.96 631.149 212.96C662.883 214.08 688.269 226.587 707.309 250.48V109.92H768.909V470H708.989V434.16C690.323 459.92 665.309 473.547 633.949 475.04C629.843 475.413 625.736 475.6 621.629 475.6C583.923 475.6 553.123 464.027 529.229 440.88C505.336 417.36 493.389 385.44 493.389 345.12C493.389 305.547 505.709 273.253 530.349 248.24ZM556.669 345.12C556.669 369.387 563.949 388.987 578.509 403.92C593.069 418.853 611.549 426.32 633.949 426.32C657.096 426.32 675.389 418.853 688.829 403.92C702.269 388.987 708.989 369.013 708.989 344C708.989 317.493 702.269 297.147 688.829 282.96C675.763 268.773 657.469 261.68 633.949 261.68C610.803 261.68 592.136 269.147 577.949 284.08C563.763 299.013 556.669 319.36 556.669 345.12ZM805.786 344C805.786 305.92 818.293 274.56 843.306 249.92C868.693 224.907 903.226 212.4 946.906 212.4C990.213 212.4 1024.37 224.907 1049.39 249.92C1074.77 274.56 1087.47 305.92 1087.47 344C1087.47 382.827 1074.96 414.373 1049.95 438.64C1024.93 463.28 990.586 475.6 946.906 475.6C903.226 475.6 868.693 463.28 843.306 438.64C818.293 413.627 805.786 382.08 805.786 344ZM889.786 403.36C903.6 419.04 922.64 426.88 946.906 426.88C970.8 426.88 989.653 419.04 1003.47 403.36C1017.65 387.68 1024.75 367.893 1024.75 344C1024.75 319.733 1017.84 299.947 1004.03 284.64C990.213 268.96 971.173 261.12 946.906 261.12C922.266 261.12 903.04 268.96 889.226 284.64C875.786 299.947 869.066 319.733 869.066 344C869.066 368.267 875.973 388.053 889.786 403.36ZM1194 342.32L1082 218H1155.92L1228.72 298.64L1301.52 218H1375.44L1265.68 339.52L1383.28 470H1309.36L1230.96 383.2L1153.12 470H1079.2L1194 342.32Z" fill="#2A307A"/>
<circle cx="418.4" cy="144" r="40" fill="#00C33D"/>
</g>
<defs>
<clipPath id="clip0_46_410">
<rect width="1500" height="493" fill="white"/>
</clipPath>
</defs>
</svg>
